<svg id="Layer_1" data-name="Layer 1" xmlns="http://www.w3.org/2000/svg" xmlns:xlink="http://www.w3.org/1999/xlink" width="75.5694in" height="10.6944in" viewBox="0 0 5441 770"><defs><style>.cls-1{fill:url(#linear-gradient);}.cls-2{isolation:isolate;}.cls-3{fill:#2b2b2b;}</style><linearGradient id="linear-gradient" x1="84.8364" y1="373.0438" x2="476.7667" y2="373.0438" gradientTransform="matrix(1, 0, 0, -1, 0, 770)" gradientUnits="userSpaceOnUse"><stop offset="0" stop-color="#f06548"/><stop offset="1" stop-color="#ffcb63"/></linearGradient></defs><path class="cls-1" d="M442.58,413.42c30.46,0,42.92,17.81,27.68,39.64L308.48,684.66c-15.22,21.79-40.13,21.79-55.37,0L91.35,453.06C76.1,431.23,88.56,413.42,119,413.42ZM253.37,109.17,93.06,339.43c-15.08,21.71-2.74,39.42,27.46,39.42H441.1c30.19,0,42.53-17.71,27.43-39.42L308.24,109.17c-7.55-10.84-17.49-16.26-27.43-16.26s-19.89,5.42-27.44,16.26"/><g class="cls-2"><g class="cls-2"><path class="cls-3" d="M735.68,347.9062,689.9766,397.125V519H602.0859V92.4375h87.8907V285.7969L728.6484,232.77,837.34,92.4375H945.4453L793.9805,281.9883,949.84,519H845.25Z"/><path class="cls-3" d="M1097.7891,92.4375l109.57,309.375,108.9844-309.375h115.43V519H1343.59V402.3984l8.7891-201.2695L1237.2422,519h-60.3516L1062.0469,201.4219l8.789,200.9765V519H982.9453V92.4375Z"/><path class="cls-3" d="M1843.3945,376.91q-2.3481,32.5194-14.6484,59.7656a138.9255,138.9255,0,0,1-33.9844,46.7285q-21.684,19.4868-52.5879,30.4687-30.9126,10.9864-70.459,10.9864-41.02,0-73.6816-14.209a150.5252,150.5252,0,0,1-55.3711-40.8692q-22.708-26.6558-34.8633-64.6-12.1611-37.9365-12.1582-85.1074v-28.125q0-47.1657,12.5977-85.2539,12.5933-38.0815,35.5957-64.7461a154.4916,154.4916,0,0,1,55.8105-41.0156q32.8081-14.3511,73.2422-14.3555,39.8394,0,70.459,11.2793,30.6108,11.2815,52.002,31.3477a142.5268,142.5268,0,0,1,33.3984,47.7539,199.947,199.947,0,0,1,15.2344,60.2051H1756.09a133.2664,133.2664,0,0,0-6.5918-33.6914,66.1468,66.1468,0,0,0-14.7949-24.6094q-9.6679-9.9566-24.9023-15.0879-15.2373-5.1225-36.9141-5.127-44.5356,0-66.3574,32.3731-21.8291,32.3752-21.8262,100.3418v28.7109q0,33.11,4.834,58.0078,4.834,24.9053,15.2344,41.6016a66.9363,66.9363,0,0,0,26.9531,25.0488q16.5483,8.35,39.99,8.35,20.7979,0,35.8887-4.6875a60.9087,60.9087,0,0,0,40.8692-38.0859q5.562-14.3511,7.0312-33.3984Z"/></g><g class="cls-2"><path class="cls-3" d="M2211.6528,388.3359q-3.227,34.5734-15.3808,60.2051-12.1611,25.6392-31.7871,42.627a128.4152,128.4152,0,0,1-46.2891,25.3418q-26.6631,8.35-58.5937,8.35-35.1562,0-63.7208-13.6231a139.4872,139.4872,0,0,1-48.6328-38.2324q-20.07-24.6093-31.0547-59.0332-10.9863-34.421-10.9863-76.3184V273.7852q0-41.5972,10.9863-76.1719,10.9864-34.566,31.0547-59.18a139.4872,139.4872,0,0,1,48.6328-38.2324q28.5645-13.6231,63.7208-13.6231,31.9291,0,58.5937,8.4961a131.5271,131.5271,0,0,1,46.2891,25.3418q19.6245,16.85,31.7871,42.334,12.1537,25.4883,15.3808,59.7656h-15.82q-6.7427-58.8867-41.0156-89.5019-34.2774-30.6109-95.2148-30.6153-31.0577,0-56.543,12.1582a126.1262,126.1262,0,0,0-43.7988,34.57q-18.3128,22.4121-28.2715,53.9062-9.9632,31.4964-9.961,70.166v64.4531q0,38.6719,9.961,70.3125,9.9565,31.6407,28.2715,54.0528a127.6761,127.6761,0,0,0,43.7988,34.7168q25.4883,12.3046,56.543,12.3047,29.5869,0,53.32-7.1778a113.5049,113.5049,0,0,0,41.1621-21.9726q17.4272-14.7906,27.9785-37.5,10.5468-22.7007,13.7695-54.0528Z"/><path class="cls-3" d="M2278.1567,354.3516q0-34.86,10.1075-63.8672,10.1073-29.004,28.4179-49.9512a129.1929,129.1929,0,0,1,43.7989-32.666q25.4881-11.7144,56.25-11.7188,31.05,0,56.6894,11.7188a127.4,127.4,0,0,1,43.7988,32.666q18.1613,20.9495,28.2715,49.9512,10.1074,29.0039,10.1074,63.8672v12.3046q0,34.8678-9.9609,63.8672-9.9639,29.004-28.2715,49.9512a129.118,129.118,0,0,1-43.7988,32.666q-25.4883,11.7144-56.25,11.7188-31.0576,0-56.6895-11.7188a128.6568,128.6568,0,0,1-43.9453-32.666q-18.3135-20.9429-28.4179-49.9512-10.1074-29.0038-10.1075-63.8672Zm15.82,12.3046a174.79,174.79,0,0,0,8.35,54.1993,140.5784,140.5784,0,0,0,24.17,45.41,116.8183,116.8183,0,0,0,38.6719,31.2012q22.8514,11.5767,52.1484,11.5723,29.0039,0,51.709-11.5723a115.7965,115.7965,0,0,0,38.3789-31.2012,142.24,142.24,0,0,0,24.0234-45.41,174.79,174.79,0,0,0,8.35-54.1993V354.3516a171.5661,171.5661,0,0,0-8.35-53.4668,142.6926,142.6926,0,0,0-24.17-45.41,119.3682,119.3682,0,0,0-38.6719-31.6406q-22.8515-11.8653-51.8554-11.8652t-51.8555,11.8652a117.7811,117.7811,0,0,0-38.5254,31.6406,144.3023,144.3023,0,0,0-24.0234,45.41,171.5661,171.5661,0,0,0-8.35,53.4668Z"/><path class="cls-3" d="M2859.1133,519h-15.82V308.0625q0-28.4136-6.4453-47.0215-6.4483-18.6014-18.0176-29.59A63.9941,63.9941,0,0,0,2791.291,216.07a130.4976,130.4976,0,0,0-34.7168-4.3945q-26.3672,0-45.9956,10.84a114.0571,114.0571,0,0,0-33.1055,27.1,140.7972,140.7972,0,0,0-21.3867,34.8633,167.7861,167.7861,0,0,0-10.84,34.1309V519h-16.1133V202.0078h16.1133v75a155.6661,155.6661,0,0,1,17.7246-31.7871,119.3988,119.3988,0,0,1,56.8359-42.7734,109.9886,109.9886,0,0,1,37.646-6.2989q39.8409,0,65.1856,17.5782,25.3387,17.5781,33.2519,57.4218a117.9678,117.9678,0,0,1,43.3594-53.1738,128.8218,128.8218,0,0,1,33.3984-15.9668,131.0363,131.0363,0,0,1,39.8438-5.8594q24.0205,0,42.92,6.5918a77.0182,77.0182,0,0,1,31.9336,20.8008q13.0342,14.2134,19.9219,36.4746,6.8818,22.2678,6.8847,53.9063V519h-15.82V313.9219q0-30.1714-6.4453-50.0977-6.4482-19.92-18.0176-31.4941a63.719,63.719,0,0,0-27.539-16.26,116.4914,116.4914,0,0,0-34.7168-4.3945,119.8248,119.8248,0,0,0-34.1309,5.1269,114.2586,114.2586,0,0,0-27.6855,12.7442,104.4614,104.4614,0,0,0-21.3867,18.0176,132.8841,132.8841,0,0,0-15.3809,20.6543,109.0309,109.0309,0,0,0-9.8145,20.9472,75.9639,75.9639,0,0,0-4.1015,18.8965Z"/><path class="cls-3" d="M3397.0039,519h-15.82V308.0625q0-28.4136-6.4453-47.0215-6.4482-18.6014-18.0176-29.59a63.9941,63.9941,0,0,0-27.5391-15.3809,130.4971,130.4971,0,0,0-34.7168-4.3945q-26.3672,0-45.996,10.84a114.069,114.069,0,0,0-33.1055,27.1,140.7942,140.7942,0,0,0-21.3867,34.8633,167.8433,167.8433,0,0,0-10.84,34.1309V519h-16.1133V202.0078h16.1133v75a155.7136,155.7136,0,0,1,17.7246-31.7871,119.4,119.4,0,0,1,56.836-42.7734,109.9927,109.9927,0,0,1,37.6465-6.2989q39.8407,0,65.1855,17.5782,25.3389,17.5781,33.2519,57.4218a117.9678,117.9678,0,0,1,43.3594-53.1738,128.8224,128.8224,0,0,1,33.3985-15.9668,131.0357,131.0357,0,0,1,39.8437-5.8594q24.0205,0,42.92,6.5918a77.0176,77.0176,0,0,1,31.9336,20.8008q13.0343,14.2134,19.9219,36.4746,6.8818,22.2678,6.8848,53.9063V519h-15.82V313.9219q0-30.1714-6.4454-50.0977-6.4482-19.92-18.0175-31.4941a63.7193,63.7193,0,0,0-27.5391-16.26,116.4909,116.4909,0,0,0-34.7168-4.3945,119.8259,119.8259,0,0,0-34.1309,5.1269,114.2586,114.2586,0,0,0-27.6855,12.7442,104.4614,104.4614,0,0,0-21.3867,18.0176,132.8841,132.8841,0,0,0-15.3809,20.6543,109.03,109.03,0,0,0-9.8144,20.9472,75.96,75.96,0,0,0-4.1016,18.8965Z"/><path class="cls-3" d="M3912.9219,519a139.5227,139.5227,0,0,1-4.541-26.8066q-1.3184-15.6694-1.3184-31.2012a129.6449,129.6449,0,0,1-46.875,44.8242,146.77,146.77,0,0,1-34.8633,13.916,168.1484,168.1484,0,0,1-43.0664,5.127q-22.2685,0-40.2832-6.2989a89.8586,89.8586,0,0,1-30.7617-17.7246A77.884,77.884,0,0,1,3691.584,473.59a86.3977,86.3977,0,0,1-6.8848-34.8632,78.6864,78.6864,0,0,1,9.961-38.9649q9.9579-17.8667,28.8574-30.6152,18.8964-12.7442,46.1426-19.9219,27.246-7.1748,61.5234-7.1777h75.8789V295.7578q0-39.8394-25.0488-61.8164-25.0488-21.9726-71.6309-21.9726a132.0508,132.0508,0,0,0-40.1367,5.8593,104.5226,104.5226,0,0,0-32.08,16.26,77.6521,77.6521,0,0,0-21.3867,24.6094,62.84,62.84,0,0,0-7.7637,30.6152l-15.82-.5859a76.3236,76.3236,0,0,1,8.6426-35.3028,92.2065,92.2065,0,0,1,24.3164-29.59,121.4374,121.4374,0,0,1,37.207-20.2149,142.5857,142.5857,0,0,1,47.0215-7.4707,154.6559,154.6559,0,0,1,45.2637,6.2989,100.8533,100.8533,0,0,1,35.5957,18.75,84.6226,84.6226,0,0,1,23.291,31.3476q8.35,18.8966,8.35,43.7989v158.789q0,8.5005.586,17.4317.5829,8.94,1.6113,16.9921,1.0224,8.0611,2.49,15.0879a60.0076,60.0076,0,0,0,3.5156,11.7188V519Zm-130.6641-9.668a161.634,161.634,0,0,0,42.334-5.2734,126.8823,126.8823,0,0,0,35.1562-15.2344,121.7452,121.7452,0,0,0,27.5391-23.8769,131.1208,131.1208,0,0,0,19.7754-31.4942V358.16h-75q-30.7617,0-55.0781,6.0058-24.3194,6.0088-41.3086,16.8457-16.9952,10.8428-26.0742,25.9278a62.7287,62.7287,0,0,0-9.0821,32.9589,61.7919,61.7919,0,0,0,6.0059,26.9532,68.2984,68.2984,0,0,0,16.8457,22.1191,79.7637,79.7637,0,0,0,25.7812,14.9414A96.4109,96.4109,0,0,0,3782.2578,509.332Z"/><path class="cls-3" d="M4058.6738,244.4883a124.7064,124.7064,0,0,1,25.3418-25.3418,119.3257,119.3257,0,0,1,31.7871-16.8457,111.4143,111.4143,0,0,1,37.3535-6.1524q24.0205,0,42.7735,6.5918A76.0355,76.0355,0,0,1,4227.57,223.541q12.8877,14.2134,19.6289,36.4746,6.7355,22.2678,6.7383,53.9063V519h-15.82V313.9219q0-30.1714-6.2988-49.9512-6.3018-19.7754-17.7246-31.3477a62.7045,62.7045,0,0,0-27.2461-16.26,121.39,121.39,0,0,0-34.57-4.6875,97.4905,97.4905,0,0,0-57.5683,17.8711,114.471,114.471,0,0,0-20.6543,18.75,137.0769,137.0769,0,0,0-15.6738,22.2656A168.81,168.81,0,0,0,4047.3945,294a172.1833,172.1833,0,0,0-6.7383,21.9727V519h-15.82V202.0078h15.82v73.8281A147.4876,147.4876,0,0,1,4058.6738,244.4883Z"/><path class="cls-3" d="M4338.6055,357.2812q0-37.497,8.0566-67.3828,8.0537-29.8827,23.4375-50.6836a104.5294,104.5294,0,0,1,37.6465-31.9336q22.2627-11.1306,50.3906-11.1328a130.9842,130.9842,0,0,1,36.0352,4.6875,115.4969,115.4969,0,0,1,29.7363,13.0371,106.8424,106.8424,0,0,1,23.7305,20.2149,137.3454,137.3454,0,0,1,18.0175,26.2207V69h15.82V519h-15.82V468.3164a110.8488,110.8488,0,0,1-41.748,40.43,125.191,125.191,0,0,1-30.1758,11.8652,145.5108,145.5108,0,0,1-36.1816,4.2481q-28.125,0-50.2442-11.5723a106.0588,106.0588,0,0,1-37.3535-32.8125q-15.2373-21.2373-23.291-50.9766-8.0595-29.7318-8.0566-66.0644Zm16.4062,6.1524a253.3348,253.3348,0,0,0,6.2988,58.3008q6.296,26.6631,18.8965,46.1426a90.5658,90.5658,0,0,0,31.7871,30.3222q19.1867,10.8428,45.2637,10.84a139.965,139.965,0,0,0,39.2578-5.127,108.0329,108.0329,0,0,0,31.0547-14.3555,95.4378,95.4378,0,0,0,22.8516-21.8261,120.263,120.263,0,0,0,15.2343-27.2461V291.9492a171.2208,171.2208,0,0,0-12.5976-27.9785,99.9961,99.9961,0,0,0-51.709-44.6777q-18.3135-7.32-43.5058-7.3242-26.0772,0-45.41,10.84a91.9389,91.9389,0,0,0-32.08,30.1758q-12.7442,19.3359-19.043,45.9961a253.3612,253.3612,0,0,0-6.2988,58.3007Z"/><path class="cls-3" d="M4795.6367,524.8594a126.9674,126.9674,0,0,1-54.1992-11.7188,136.152,136.152,0,0,1-44.0918-32.666q-18.8966-20.9429-29.7363-49.8047-10.8428-28.8529-10.84-63.4277V354.3516q0-34.566,10.5469-63.7207,10.547-29.1483,28.5645-50.0977a130.0967,130.0967,0,0,1,42.1875-32.666,117.0109,117.0109,0,0,1,51.7089-11.7188q26.3673,0,48.4864,9.8145a110.7622,110.7622,0,0,1,38.0859,27.6855q15.9639,17.8734,24.9024,42.7735,8.9325,24.9045,8.9355,55.0781v18.457H4672.59v17.2852a161.9767,161.9767,0,0,0,9.375,55.5176,142.3438,142.3438,0,0,0,25.9278,45.1172,123.04,123.04,0,0,0,39.1113,30.3222,108.3457,108.3457,0,0,0,48.6328,11.1328,164.5955,164.5955,0,0,0,26.2207-2.0508A104.66,104.66,0,0,0,4846.32,500.25a102.9434,102.9434,0,0,0,22.5586-13.33,116.4164,116.4164,0,0,0,20.8008-21.24l11.1328,7.91a122.8321,122.8321,0,0,1-18.1641,20.8008,107.263,107.263,0,0,1-23.291,16.1133A127.4551,127.4551,0,0,1,4830.5,521.0508,149.1407,149.1407,0,0,1,4795.6367,524.8594Zm-5.8594-312.8906a102.8871,102.8871,0,0,0-44.0918,9.375,112.0675,112.0675,0,0,0-35.3027,25.9277A135.2688,135.2688,0,0,0,4685.627,286.09a163.82,163.82,0,0,0-12.1582,48.0469h220.8984v-3.8086a137.1041,137.1041,0,0,0-7.4707-45.2636,118.88,118.88,0,0,0-21.0938-37.793,100.3007,100.3007,0,0,0-32.9589-25.7813Q4813.5078,211.9732,4789.7773,211.9688Z"/><path class="cls-3" d="M5123.7617,213.4336q-4.69-.5838-9.8144-1.1719a94.5964,94.5964,0,0,0-10.6934-.5859q-21.9726,0-39.5508,7.6172a93.7957,93.7957,0,0,0-30.4687,20.9472,112.3469,112.3469,0,0,0-21.24,31.4942,162.483,162.483,0,0,0-12.1582,39.5508V519h-15.82V202.0078h15.82v65.918q12.8877-33.1033,38.6719-52.4414,25.7784-19.3359,64.7461-19.336a83.5738,83.5738,0,0,1,12.8906.8789,46.9281,46.9281,0,0,1,9.375,2.3438Z"/></g><g class="cls-2"><path class="cls-3" d="M5139.4082,113.2852a46.27,46.27,0,0,1,1.4941-11.8653,45.6373,45.6373,0,0,1,4.19-10.5176,41.9468,41.9468,0,0,1,6.5039-8.8183,40.9578,40.9578,0,0,1,18.3691-11.0449,40.7982,40.7982,0,0,1,22.09,0,40.8954,40.8954,0,0,1,9.9023,4.3066,41.4237,41.4237,0,0,1,8.4082,6.7383,42.08,42.08,0,0,1,6.5039,8.8183,45.7269,45.7269,0,0,1,4.19,10.5176,47.86,47.86,0,0,1,0,23.7305,45.691,45.691,0,0,1-4.19,10.5176,42.7505,42.7505,0,0,1-6.5039,8.8476,41.6826,41.6826,0,0,1-8.4082,6.7969,40.5132,40.5132,0,0,1-31.9922,4.3359,40.616,40.616,0,0,1-9.9316-4.3359,41.2161,41.2161,0,0,1-8.4375-6.7969,42.6135,42.6135,0,0,1-6.5039-8.8476,45.6015,45.6015,0,0,1-4.19-10.5176A46.2582,46.2582,0,0,1,5139.4082,113.2852Zm7.1484,0a38.36,38.36,0,0,0,2.6954,14.4433,36.2257,36.2257,0,0,0,7.3828,11.6309,34.4318,34.4318,0,0,0,10.957,7.7344,33.27,33.27,0,0,0,22.5586,1.5234,33.6192,33.6192,0,0,0,8.2031-3.6328,35.1092,35.1092,0,0,0,12.3633-13.0371,38.5377,38.5377,0,0,0,3.457-8.7891,40.224,40.224,0,0,0,0-19.7461,37.9759,37.9759,0,0,0-3.457-8.76,34.4857,34.4857,0,0,0-5.3906-7.3242,35.5464,35.5464,0,0,0-6.9727-5.625,33.5186,33.5186,0,0,0-30.7617-2.08,34.28,34.28,0,0,0-10.957,7.6758,35.9651,35.9651,0,0,0-7.3828,11.5723A38.137,38.137,0,0,0,5146.5566,113.2852Zm26.0157,4.4531v19.7461h-8.8477V87.68H5180.19a29.6071,29.6071,0,0,1,7.8515.9668,17.3616,17.3616,0,0,1,6.0059,2.8711,12.8065,12.8065,0,0,1,3.8379,4.7461,15.3878,15.3878,0,0,1,1.3476,6.65,10.5694,10.5694,0,0,1-1.7871,6.123,14.1716,14.1716,0,0,1-5.2441,4.4238,10.1357,10.1357,0,0,1,5.332,4.9805,17.3487,17.3487,0,0,1,1.5234,7.3828v3.2813a39.2678,39.2678,0,0,0,.2051,4.16,11.17,11.17,0,0,0,.791,3.2813v.9375h-9.082a8.2461,8.2461,0,0,1-.4395-1.9336q-.1479-1.172-.2343-2.4024-.0879-1.23-.0879-2.3437v-4.9219q0-4.16-1.9043-6.1523t-6.4746-1.9922Zm0-7.8516h8.3789a14.5842,14.5842,0,0,0,3.6035-.4394,10.2484,10.2484,0,0,0,3.0469-1.2891,6.4857,6.4857,0,0,0,2.08-2.1094,5.6136,5.6136,0,0,0,.7618-2.959,10.6123,10.6123,0,0,0-.5274-3.5742,5.064,5.064,0,0,0-1.7285-2.373,7.6039,7.6039,0,0,0-3.1641-1.2891,25.9257,25.9257,0,0,0-4.8339-.3808h-7.6172Z"/></g><g class="cls-2"><path class="cls-3" d="M588.4629,699h-9.0088V592.3594h9.0088Z"/><path class="cls-3" d="M610.5088,658.2041a48.6661,48.6661,0,0,1,2.5268-15.9668,37.8361,37.8361,0,0,1,7.1412-12.6338A32.6813,32.6813,0,0,1,631.31,621.29a34.2482,34.2482,0,0,1,14.5019-3.0029,34.8611,34.8611,0,0,1,14.6851,3.0029,32.607,32.607,0,0,1,11.1694,8.3135,37.3551,37.3551,0,0,1,7.1045,12.6338,49.3434,49.3434,0,0,1,2.49,15.9668v2.417a49.3346,49.3346,0,0,1-2.49,15.9668,37.35,37.35,0,0,1-7.1045,12.6348,32.2576,32.2576,0,0,1-11.1328,8.2753,37.2857,37.2857,0,0,1-29.15,0,32.6064,32.6064,0,0,1-11.1694-8.2753,37.4715,37.4715,0,0,1-7.1778-12.6348,48.6576,48.6576,0,0,1-2.5268-15.9668Zm8.7891,2.417a43.2126,43.2126,0,0,0,1.7578,12.4141,31.9573,31.9573,0,0,0,5.1269,10.3281,25.1009,25.1009,0,0,0,8.35,7.0674,25.9952,25.9952,0,0,0,22.815,0,25.24,25.24,0,0,0,8.313-7.0674,31.9894,31.9894,0,0,0,5.1269-10.3281,43.2126,43.2126,0,0,0,1.7578-12.4141v-2.417a42.7176,42.7176,0,0,0-1.7578-12.2686,32.4451,32.4451,0,0,0-5.1269-10.3632,25.245,25.245,0,0,0-8.3863-7.1407,24.0029,24.0029,0,0,0-11.4624-2.6738,23.4124,23.4124,0,0,0-11.3159,2.6738,25.4533,25.4533,0,0,0-8.313,7.1407,32.4122,32.4122,0,0,0-5.1269,10.3632,42.7176,42.7176,0,0,0-1.7578,12.2686Z"/></g><g class="cls-2"><path class="cls-3" d="M773.77,600.05H737.2217V699h-9.0088V600.05H691.7383v-7.69H773.77Z"/></g><g class="cls-2"><path class="cls-3" d="M872.4951,699a25.0186,25.0186,0,0,1-1.1357-5.0176q-.4029-2.9647-.5489-6.042a31.2869,31.2869,0,0,1-10.7666,8.7891,36.7619,36.7619,0,0,1-7.3974,2.71,35.2753,35.2753,0,0,1-8.7158,1.0253A31.1214,31.1214,0,0,1,833.42,698.78a23.5047,23.5047,0,0,1-8.0566-4.7237A21.3059,21.3059,0,0,1,820.2,686.915a22.9309,22.9309,0,0,1,.6592-19.372,22.5554,22.5554,0,0,1,7.1777-7.91,35.0432,35.0432,0,0,1,11.3887-4.9805,60.5893,60.5893,0,0,1,15.0517-1.7216h16.26v-9.0088q0-8.4962-5.2373-13.3672-5.2368-4.8692-15.27-4.87a27.6851,27.6851,0,0,0-8.4961,1.2451,21.4471,21.4471,0,0,0-6.7022,3.4424,16.3534,16.3534,0,0,0-4.3945,5.0908,12.7352,12.7352,0,0,0-1.5742,6.1885l-8.7891-.0733a18.3347,18.3347,0,0,1,2.1973-8.6426,24.0258,24.0258,0,0,1,6.1885-7.4335,31.6885,31.6885,0,0,1,9.5947-5.2374,37.0988,37.0988,0,0,1,12.415-1.9775,39.8708,39.8708,0,0,1,11.6084,1.6113,25.3,25.3,0,0,1,9.1192,4.834,21.9636,21.9636,0,0,1,5.9326,8.0567,27.8568,27.8568,0,0,1,2.124,11.2793v38.3789q0,2.0508.1465,4.248t.4756,4.2481q.33,2.0507.7695,3.9179a20.4628,20.4628,0,0,0,1.0254,3.26V699Zm-27.539-6.2988a30.8188,30.8188,0,0,0,8.8251-1.209,28.43,28.43,0,0,0,7.3614-3.332,26.0507,26.0507,0,0,0,5.7129-4.9434,24.9352,24.9352,0,0,0,3.8818-6.1162V659.6689H855.7227a54.577,54.577,0,0,0-12.0489,1.2081,29.3188,29.3188,0,0,0-8.9717,3.4794,16.4081,16.4081,0,0,0-5.6035,5.53,14.1074,14.1074,0,0,0-1.94,7.36,14.767,14.767,0,0,0,1.2451,6.042,14.3785,14.3785,0,0,0,3.5518,4.9082,16.9255,16.9255,0,0,0,5.6035,3.2949A21.3458,21.3458,0,0,0,844.9561,692.7012Z"/><path class="cls-3" d="M911.167,619.752l.293,13.55a35.4462,35.4462,0,0,1,4.7236-6.1524,28.6432,28.6432,0,0,1,13.0742-7.8,29.8618,29.8618,0,0,1,8.0567-1.0625,32.5955,32.5955,0,0,1,10.62,1.6113,19.1428,19.1428,0,0,1,7.9472,5.127,23.2549,23.2549,0,0,1,4.9805,9.0449,45.3956,45.3956,0,0,1,1.7207,13.3672V699h-8.7158V647.3643a33.9837,33.9837,0,0,0-1.3184-10.2539,16.566,16.566,0,0,0-3.7353-6.5918,13.6038,13.6038,0,0,0-5.8965-3.5518,26.3987,26.3987,0,0,0-7.7266-1.0625,22.0553,22.0553,0,0,0-8.4961,1.5742,23.2686,23.2686,0,0,0-6.7382,4.2119,28.0219,28.0219,0,0,0-5.0538,6.042,34.6464,34.6464,0,0,0-3.3691,6.9951V699h-8.7158V619.752Z"/><path class="cls-3" d="M981.6992,658.6436a60.5886,60.5886,0,0,1,2.124-16.6631,38.6631,38.6631,0,0,1,6.0791-12.7071,27.226,27.226,0,0,1,9.6309-8.13,28.0359,28.0359,0,0,1,12.7813-2.8565,29.2742,29.2742,0,0,1,14.4648,3.3691,28.6683,28.6683,0,0,1,9.998,9.3018V586.5h8.7159V699H1037.29l-.3662-10.5469a27.8392,27.8392,0,0,1-10.07,8.8262,31.4417,31.4417,0,0,1-14.6855,3.1855,26.787,26.787,0,0,1-12.6709-2.9668,28.2565,28.2565,0,0,1-9.5948-8.2753,39.1266,39.1266,0,0,1-6.0791-12.7081,59.0166,59.0166,0,0,1-2.124-16.333Zm8.8623,1.538a56.8784,56.8784,0,0,0,1.3916,12.9278,32.2932,32.2932,0,0,0,4.2481,10.3633,20.88,20.88,0,0,0,7.2148,6.8847,20.5428,20.5428,0,0,0,10.3633,2.49,28.7292,28.7292,0,0,0,8.0937-1.0625,22.9352,22.9352,0,0,0,6.4454-2.9659,21.7179,21.7179,0,0,0,4.9062-4.541,29.8374,29.8374,0,0,0,3.5527-5.7129v-37.207a35.5566,35.5566,0,0,0-3.2226-5.7861,21.9155,21.9155,0,0,0-4.6875-4.9434,22.6232,22.6232,0,0,0-6.4453-3.4434,25.726,25.726,0,0,0-8.4961-1.2812,20.6535,20.6535,0,0,0-10.4737,2.5273,21.112,21.112,0,0,0-7.2509,6.9209,32.2887,32.2887,0,0,0-4.2481,10.4,57.0222,57.0222,0,0,0-1.3916,12.8907Z"/></g><g class="cls-2"><path class="cls-3" d="M1164.6548,669.1172h-48.4131L1105.2554,699h-9.4483l40.3565-106.6406h8.5693L1185.0894,699h-9.375Zm-45.63-7.69h42.7734l-21.3867-58.0811Z"/></g><g class="cls-2"><path class="cls-3" d="M1248.8926,688.9658a25.4009,25.4009,0,0,1-9.9248,8.46q-6.19,3.0381-15.3438,3.039a32.2824,32.2824,0,0,1-10.62-1.6484,20.4588,20.4588,0,0,1-8.2031-5.2363,23.9414,23.9414,0,0,1-5.3106-9.2656,44.5209,44.5209,0,0,1-1.8672-13.8057V619.752h8.7159v50.9033a32.9327,32.9327,0,0,0,1.4648,10.62,18.0328,18.0328,0,0,0,3.9551,6.8115,14.1974,14.1974,0,0,0,5.8223,3.6621,22.4342,22.4342,0,0,0,7.0683,1.0987,33.3974,33.3974,0,0,0,9.3018-1.1719,22.3842,22.3842,0,0,0,6.958-3.2959,19.5174,19.5174,0,0,0,4.834-4.9805,24.995,24.995,0,0,0,3.0029-6.2988V619.752h8.7891V699h-8.4961Z"/></g><g class="cls-2"><path class="cls-3" d="M1293.9287,599.4639V619.752h16.4063V626.93h-16.4063v52.8076a21.7541,21.7541,0,0,0,.8423,6.7022,9.94,9.94,0,0,0,2.2705,3.955,7.0755,7.0755,0,0,0,3.2959,1.9043,15.8028,15.8028,0,0,0,3.9185.4756,27.3064,27.3064,0,0,0,3.8086-.2568q1.83-.2548,3.2959-.4756l.3662,7.1777a19.96,19.96,0,0,1-4.2115.9151,40.8553,40.8553,0,0,1-5.1635.33,23.2786,23.2786,0,0,1-6.9214-.9882,12.4121,12.4121,0,0,1-5.4566-3.4063,16.61,16.61,0,0,1-3.5522-6.4082,32.8685,32.8685,0,0,1-1.2818-9.9248V626.93h-14.5751V619.752H1285.14V599.4639Z"/></g><g class="cls-2"><path class="cls-3" d="M1322.2017,658.2041a48.6635,48.6635,0,0,1,2.5268-15.9668,37.8377,37.8377,0,0,1,7.1411-12.6338,32.6832,32.6832,0,0,1,11.1328-8.3135,34.2487,34.2487,0,0,1,14.502-3.0029A34.8615,34.8615,0,0,1,1372.19,621.29a32.607,32.607,0,0,1,11.1694,8.3135,37.3568,37.3568,0,0,1,7.1045,12.6338,49.3434,49.3434,0,0,1,2.49,15.9668v2.417a49.3346,49.3346,0,0,1-2.49,15.9668,37.3519,37.3519,0,0,1-7.1045,12.6348,32.2576,32.2576,0,0,1-11.1328,8.2753,37.2857,37.2857,0,0,1-29.15,0,32.6067,32.6067,0,0,1-11.17-8.2753,37.473,37.473,0,0,1-7.1777-12.6348,48.6549,48.6549,0,0,1-2.5268-15.9668Zm8.789,2.417a43.216,43.216,0,0,0,1.7578,12.4141,31.9594,31.9594,0,0,0,5.127,10.3281,25.1009,25.1009,0,0,0,8.35,7.0674,25.995,25.995,0,0,0,22.8149,0,25.24,25.24,0,0,0,8.313-7.0674,31.99,31.99,0,0,0,5.127-10.3281,43.2126,43.2126,0,0,0,1.7578-12.4141v-2.417a42.7176,42.7176,0,0,0-1.7578-12.2686,32.4453,32.4453,0,0,0-5.127-10.3632,25.2456,25.2456,0,0,0-8.3862-7.1407,24.0029,24.0029,0,0,0-11.4624-2.6738,23.4121,23.4121,0,0,0-11.3159,2.6738,25.4533,25.4533,0,0,0-8.313,7.1407,32.4144,32.4144,0,0,0-5.127,10.3632,42.7211,42.7211,0,0,0-1.7578,12.2686Z"/><path class="cls-3" d="M1419.0278,619.752l.293,12.8906a33.7439,33.7439,0,0,1,4.5776-5.8965,26.918,26.918,0,0,1,5.8228-4.541,29.0283,29.0283,0,0,1,7.0312-2.8926,31.4534,31.4534,0,0,1,8.2032-1.0254,28.9673,28.9673,0,0,1,14.9414,3.6621q6.2241,3.6636,8.8623,11.7188a32.4538,32.4538,0,0,1,4.5781-6.1153,28.805,28.805,0,0,1,6.0781-4.8711,31.0072,31.0072,0,0,1,7.5078-3.2226,32.1746,32.1746,0,0,1,8.8623-1.1719,33.9333,33.9333,0,0,1,10.9864,1.6484,19.73,19.73,0,0,1,8.167,5.1993,23.4432,23.4432,0,0,1,5.09,9.0459,43.5339,43.5339,0,0,1,1.7578,13.1836V699h-8.789V647.291a33.2566,33.2566,0,0,0-1.3916-10.4375,15.9887,15.9887,0,0,0-3.9551-6.5918,13.9061,13.9061,0,0,0-6.1162-3.4053,30.13,30.13,0,0,0-7.8-.9521,23.1714,23.1714,0,0,0-16.81,6.9219,23.0483,23.0483,0,0,0-6.4082,13.7324V699h-8.7891V646.6318a30.1471,30.1471,0,0,0-1.3916-9.8877,15.7689,15.7689,0,0,0-3.9551-6.372,14.7343,14.7343,0,0,0-6.1157-3.4424,28.3445,28.3445,0,0,0-7.8735-1.0254,22.8708,22.8708,0,0,0-8.7891,1.5742,21.79,21.79,0,0,0-6.6284,4.2119,23.5909,23.5909,0,0,0-4.6509,6.0059,37.5772,37.5772,0,0,0-2.93,6.958V699h-8.789V619.752Z"/><path class="cls-3" d="M1594.0034,699a25.1433,25.1433,0,0,1-1.1357-5.0176q-.4029-2.9647-.5489-6.042a31.2869,31.2869,0,0,1-10.7666,8.7891,36.7394,36.7394,0,0,1-7.3974,2.71,35.27,35.27,0,0,1-8.7158,1.0253,31.1292,31.1292,0,0,1-10.5108-1.6845,23.5141,23.5141,0,0,1-8.0566-4.7237,21.32,21.32,0,0,1-5.1631-7.1416,22.9309,22.9309,0,0,1,.6592-19.372,22.5649,22.5649,0,0,1,7.1777-7.91,35.0527,35.0527,0,0,1,11.3887-4.9805,60.5944,60.5944,0,0,1,15.0517-1.7216h16.26v-9.0088q0-8.4962-5.2373-13.3672-5.2368-4.8692-15.27-4.87a27.69,27.69,0,0,0-8.4961,1.2451,21.4553,21.4553,0,0,0-6.7021,3.4424,16.3524,16.3524,0,0,0-4.3946,5.0908,12.7463,12.7463,0,0,0-1.5742,6.1885l-8.7891-.0733a18.3347,18.3347,0,0,1,2.1973-8.6426,24.028,24.028,0,0,1,6.1895-7.4335,31.6817,31.6817,0,0,1,9.5937-5.2374,37.1025,37.1025,0,0,1,12.415-1.9775,39.8611,39.8611,0,0,1,11.6084,1.6113,25.2916,25.2916,0,0,1,9.1192,4.834,21.9636,21.9636,0,0,1,5.9326,8.0567,27.84,27.84,0,0,1,2.124,11.2793v38.3789q0,2.0508.1465,4.248t.4766,4.2481q.3281,2.0507.7685,3.9179a20.4628,20.4628,0,0,0,1.0254,3.26V699Zm-27.539-6.2988a30.81,30.81,0,0,0,8.8252-1.209,28.4154,28.4154,0,0,0,7.3613-3.332,26.0507,26.0507,0,0,0,5.7129-4.9434,24.9352,24.9352,0,0,0,3.8818-6.1162V659.6689H1577.231a54.577,54.577,0,0,0-12.0489,1.2081,29.3392,29.3392,0,0,0-8.9717,3.4794,16.4048,16.4048,0,0,0-5.6025,5.53,14.0987,14.0987,0,0,0-1.9414,7.36,14.767,14.767,0,0,0,1.2451,6.042,14.4051,14.4051,0,0,0,3.5518,4.9082,16.9346,16.9346,0,0,0,5.6035,3.2949A21.3458,21.3458,0,0,0,1566.4644,692.7012Z"/><path class="cls-3" d="M1637.9487,599.4639V619.752h16.4063V626.93h-16.4063v52.8076a21.7713,21.7713,0,0,0,.8418,6.7022,9.9417,9.9417,0,0,0,2.2715,3.955,7.0724,7.0724,0,0,0,3.2949,1.9043,15.8156,15.8156,0,0,0,3.919.4756,27.3012,27.3012,0,0,0,3.8086-.2568q1.83-.2548,3.2959-.4756l.3662,7.1777a19.9438,19.9438,0,0,1-4.2119.9151,40.8372,40.8372,0,0,1-5.1631.33,23.2705,23.2705,0,0,1-6.9209-.9882,12.4072,12.4072,0,0,1-5.457-3.4063,16.6286,16.6286,0,0,1-3.5528-6.4082,32.8861,32.8861,0,0,1-1.2812-9.9248V626.93h-14.5752V619.752H1629.16V599.4639Z"/><path class="cls-3" d="M1672.0063,596.8271a5.9381,5.9381,0,0,1,1.6114-4.2119,5.7285,5.7285,0,0,1,4.3945-1.7207,5.77,5.77,0,0,1,6.0791,5.9326,5.732,5.732,0,0,1-1.6484,4.1749,5.9093,5.9093,0,0,1-4.4307,1.6845,5.6523,5.6523,0,0,1-6.0059-5.8594ZM1682.3335,699h-8.7891V619.752h8.7891Z"/><path class="cls-3" d="M1701.3032,658.2041a48.6372,48.6372,0,0,1,2.5274-15.9668,37.8177,37.8177,0,0,1,7.1406-12.6338,32.6822,32.6822,0,0,1,11.1328-8.3135,34.2516,34.2516,0,0,1,14.502-3.0029,34.8646,34.8646,0,0,1,14.6855,3.0029,32.6042,32.6042,0,0,1,11.1689,8.3135,37.3467,37.3467,0,0,1,7.1045,12.6338,49.3433,49.3433,0,0,1,2.49,15.9668v2.417a49.3346,49.3346,0,0,1-2.49,15.9668,37.3418,37.3418,0,0,1-7.1045,12.6348,32.252,32.252,0,0,1-11.1328,8.2753,37.2857,37.2857,0,0,1-29.15,0,32.6007,32.6007,0,0,1-11.1689-8.2753,37.4545,37.4545,0,0,1-7.1777-12.6348,48.6286,48.6286,0,0,1-2.5274-15.9668Zm8.7891,2.417a43.2126,43.2126,0,0,0,1.7578,12.4141,31.97,31.97,0,0,0,5.127,10.3281,25.1009,25.1009,0,0,0,8.35,7.0674,25.9939,25.9939,0,0,0,22.8144,0,25.2268,25.2268,0,0,0,8.3135-7.0674,31.9874,31.9874,0,0,0,5.1269-10.3281,43.2126,43.2126,0,0,0,1.7579-12.4141v-2.417a42.7176,42.7176,0,0,0-1.7579-12.2686,32.4431,32.4431,0,0,0-5.1269-10.3632,25.2383,25.2383,0,0,0-8.3858-7.1407,24.0059,24.0059,0,0,0-11.4628-2.6738,23.4166,23.4166,0,0,0-11.3164,2.6738,25.4607,25.4607,0,0,0-8.3125,7.1407,32.4247,32.4247,0,0,0-5.127,10.3632,42.7176,42.7176,0,0,0-1.7578,12.2686Z"/><path class="cls-3" d="M1798.4956,619.752l.293,13.55a35.4514,35.4514,0,0,1,4.7246-6.1524,28.6331,28.6331,0,0,1,13.0732-7.8,29.8618,29.8618,0,0,1,8.0567-1.0625,32.5955,32.5955,0,0,1,10.62,1.6113,19.1428,19.1428,0,0,1,7.9472,5.127,23.2549,23.2549,0,0,1,4.9805,9.0449,45.3956,45.3956,0,0,1,1.7207,13.3672V699h-8.7158V647.3643a33.9837,33.9837,0,0,0-1.3184-10.2539,16.566,16.566,0,0,0-3.7353-6.5918,13.6032,13.6032,0,0,0-5.8965-3.5518,26.3987,26.3987,0,0,0-7.7266-1.0625,22.0553,22.0553,0,0,0-8.4961,1.5742,23.2819,23.2819,0,0,0-6.7382,4.2119,28.0732,28.0732,0,0,0-5.0537,6.042,34.695,34.695,0,0,0-3.3692,6.9951V699h-8.7158V619.752Z"/><path class="cls-3" d="M1920.0776,655.5674V699h-9.0088V592.3594h36.3282a46.855,46.855,0,0,1,15.49,2.3437,31.6738,31.6738,0,0,1,11.2432,6.5547,27.1044,27.1044,0,0,1,6.8486,10.0713,34.9152,34.9152,0,0,1,2.3066,12.8906,35.6679,35.6679,0,0,1-2.3066,13.22,25.7031,25.7031,0,0,1-6.8125,9.8515,30.225,30.225,0,0,1-11.2422,6.1524,51.66,51.66,0,0,1-15.5273,2.124Zm0-7.6172h27.3194a37.14,37.14,0,0,0,12.2314-1.794,22.0225,22.0225,0,0,0,8.35-4.98,19.7135,19.7135,0,0,0,4.7608-7.5078,27.5371,27.5371,0,0,0,1.5381-9.3018,28.2856,28.2856,0,0,0-1.5381-9.3389,20.8933,20.8933,0,0,0-4.7608-7.7636,22.5047,22.5047,0,0,0-8.35-5.2735,34.5939,34.5939,0,0,0-12.2314-1.94h-27.3194Z"/><path class="cls-3" d="M2011.1909,699h-8.789V586.5h8.789Z"/><path class="cls-3" d="M2085.019,699a25.1573,25.1573,0,0,1-1.1357-5.0176q-.4029-2.9647-.5488-6.042a31.2869,31.2869,0,0,1-10.7666,8.7891,36.7426,36.7426,0,0,1-7.3975,2.71,35.27,35.27,0,0,1-8.7158,1.0253,31.13,31.13,0,0,1-10.5108-1.6845,23.5141,23.5141,0,0,1-8.0566-4.7237,21.32,21.32,0,0,1-5.1631-7.1416,22.9319,22.9319,0,0,1,.6592-19.372,22.5649,22.5649,0,0,1,7.1777-7.91,35.0537,35.0537,0,0,1,11.3887-4.9805,60.5958,60.5958,0,0,1,15.0518-1.7216h16.26v-9.0088q0-8.4962-5.2373-13.3672-5.2368-4.8692-15.2705-4.87a27.69,27.69,0,0,0-8.4961,1.2451,21.4575,21.4575,0,0,0-6.7021,3.4424,16.3524,16.3524,0,0,0-4.3946,5.0908,12.7463,12.7463,0,0,0-1.5742,6.1885l-8.789-.0733a18.3345,18.3345,0,0,1,2.1972-8.6426,24.0308,24.0308,0,0,1,6.1895-7.4335,31.6829,31.6829,0,0,1,9.5937-5.2374,37.1035,37.1035,0,0,1,12.4151-1.9775,39.8621,39.8621,0,0,1,11.6084,1.6113,25.292,25.292,0,0,1,9.1191,4.834,21.9636,21.9636,0,0,1,5.9326,8.0567,27.84,27.84,0,0,1,2.1241,11.2793v38.3789q0,2.0508.1464,4.248t.4766,4.2481q.328,2.0507.7686,3.9179a20.453,20.453,0,0,0,1.0253,3.26V699Zm-27.539-6.2988a30.81,30.81,0,0,0,8.8252-1.209,28.4154,28.4154,0,0,0,7.3613-3.332,26.0461,26.0461,0,0,0,5.7129-4.9434,24.9352,24.9352,0,0,0,3.8818-6.1162V659.6689h-15.0146a54.5754,54.5754,0,0,0-12.0488,1.2081,29.3371,29.3371,0,0,0-8.9717,3.4794,16.4042,16.4042,0,0,0-5.6026,5.53,14.0987,14.0987,0,0,0-1.9414,7.36,14.767,14.767,0,0,0,1.2451,6.042,14.4051,14.4051,0,0,0,3.5518,4.9082,16.9367,16.9367,0,0,0,5.6035,3.2949A21.3458,21.3458,0,0,0,2057.48,692.7012Z"/><path class="cls-3" d="M2128.9644,599.4639V619.752h16.4062V626.93h-16.4062v52.8076a21.7682,21.7682,0,0,0,.8418,6.7022,9.94,9.94,0,0,0,2.2714,3.955,7.0722,7.0722,0,0,0,3.295,1.9043,15.8148,15.8148,0,0,0,3.9189.4756,27.3,27.3,0,0,0,3.8086-.2568q1.83-.2548,3.2959-.4756l.3662,7.1777a19.9438,19.9438,0,0,1-4.2119.9151,40.8372,40.8372,0,0,1-5.1631.33,23.2715,23.2715,0,0,1-6.9209-.9882,12.4078,12.4078,0,0,1-5.457-3.4063,16.6286,16.6286,0,0,1-3.5528-6.4082,32.8892,32.8892,0,0,1-1.2812-9.9248V626.93H2105.6V619.752h14.5752V599.4639Z"/><path class="cls-3" d="M2169.8335,699V626.93h-13.11V619.752h13.11v-9.8145a32.8209,32.8209,0,0,1,1.6113-10.6934,20.8507,20.8507,0,0,1,4.65-7.8369,19.9765,19.9765,0,0,1,7.3613-4.7978,27.4156,27.4156,0,0,1,9.8145-1.6475,38.25,38.25,0,0,1,4.65.293,29.6508,29.6508,0,0,1,4.6514.9521l-.6592,7.3242a31.7047,31.7047,0,0,0-3.6992-.6591,37.0356,37.0356,0,0,0-4.2842-.22q-7.251,0-11.2793,4.5039-4.0284,4.506-4.0283,12.7813v9.8145h18.8964V626.93h-18.8964V699Z"/><path class="cls-3" d="M2208.3589,658.2041a48.64,48.64,0,0,1,2.5273-15.9668,37.8179,37.8179,0,0,1,7.1407-12.6338A32.6813,32.6813,0,0,1,2229.16,621.29a34.2515,34.2515,0,0,1,14.5019-3.0029,34.8651,34.8651,0,0,1,14.6856,3.0029,32.6051,32.6051,0,0,1,11.1689,8.3135,37.3483,37.3483,0,0,1,7.1045,12.6338,49.3434,49.3434,0,0,1,2.49,15.9668v2.417a49.3346,49.3346,0,0,1-2.49,15.9668,37.3435,37.3435,0,0,1-7.1045,12.6348,32.2529,32.2529,0,0,1-11.1328,8.2753,37.2857,37.2857,0,0,1-29.15,0,32.6,32.6,0,0,1-11.1689-8.2753,37.4547,37.4547,0,0,1-7.1778-12.6348,48.6313,48.6313,0,0,1-2.5273-15.9668Zm8.789,2.417a43.2126,43.2126,0,0,0,1.7579,12.4141,31.9673,31.9673,0,0,0,5.1269,10.3281,25.1009,25.1009,0,0,0,8.35,7.0674,25.9941,25.9941,0,0,0,22.8145,0,25.2268,25.2268,0,0,0,8.3135-7.0674,31.9894,31.9894,0,0,0,5.1269-10.3281,43.2126,43.2126,0,0,0,1.7578-12.4141v-2.417a42.7176,42.7176,0,0,0-1.7578-12.2686,32.4451,32.4451,0,0,0-5.1269-10.3632,25.2383,25.2383,0,0,0-8.3858-7.1407,24.0063,24.0063,0,0,0-11.4629-2.6738,23.4171,23.4171,0,0,0-11.3164,2.6738,25.4617,25.4617,0,0,0-8.3125,7.1407,32.4225,32.4225,0,0,0-5.1269,10.3632,42.7176,42.7176,0,0,0-1.7579,12.2686Z"/><path class="cls-3" d="M2333.8228,627.2227a32.8331,32.8331,0,0,0-5.9327-.5127,23.2335,23.2335,0,0,0-8.0566,1.3183,20.2219,20.2219,0,0,0-6.335,3.6983,21.6426,21.6426,0,0,0-4.6152,5.6406,31.3187,31.3187,0,0,0-2.9658,7.2139V699h-8.7158V619.752h8.5693l.1465,12.5976a26.23,26.23,0,0,1,8.7529-10.291,23.5461,23.5461,0,0,1,13.5859-3.7715,19.326,19.326,0,0,1,3.2959.293,10.9782,10.9782,0,0,1,2.49.6592Z"/><path class="cls-3" d="M2355.6489,619.752l.293,12.8906a33.76,33.76,0,0,1,4.5771-5.8965,26.9426,26.9426,0,0,1,5.8233-4.541,29.0448,29.0448,0,0,1,7.0312-2.8926,31.4534,31.4534,0,0,1,8.2032-1.0254,28.9647,28.9647,0,0,1,14.9414,3.6621q6.2241,3.6636,8.8623,11.7188a32.4538,32.4538,0,0,1,4.5781-6.1153,28.8025,28.8025,0,0,1,6.0781-4.8711,31.0072,31.0072,0,0,1,7.5078-3.2226,32.1746,32.1746,0,0,1,8.8623-1.1719,33.9333,33.9333,0,0,1,10.9864,1.6484,19.73,19.73,0,0,1,8.167,5.1993,23.4432,23.4432,0,0,1,5.09,9.0459,43.5339,43.5339,0,0,1,1.7578,13.1836V699h-8.789V647.291a33.2566,33.2566,0,0,0-1.3916-10.4375,15.9887,15.9887,0,0,0-3.9551-6.5918,13.9061,13.9061,0,0,0-6.1162-3.4053,30.13,30.13,0,0,0-7.8-.9521,23.171,23.171,0,0,0-16.81,6.9219,23.0483,23.0483,0,0,0-6.4082,13.7324V699h-8.7891V646.6318a30.1471,30.1471,0,0,0-1.3916-9.8877,15.7582,15.7582,0,0,0-3.9551-6.372,14.7331,14.7331,0,0,0-6.1162-3.4424,28.3338,28.3338,0,0,0-7.873-1.0254,22.8708,22.8708,0,0,0-8.7891,1.5742,21.81,21.81,0,0,0-6.6289,4.2119,23.6,23.6,0,0,0-4.65,6.0059,37.6112,37.6112,0,0,0-2.93,6.958V699h-8.789V619.752Z"/></g></g></svg>